<svg xmlns="http://www.w3.org/2000/svg" xmlns:xlink="http://www.w3.org/1999/xlink" width="500" zoomAndPan="magnify" viewBox="0 0 375 374.999991" height="500" preserveAspectRatio="xMidYMid meet" version="1.0"><defs><clipPath id="bc2786e94f"><path d="M 97.277344 97.277344 L 277.320312 97.277344 L 277.320312 277.320312 L 97.277344 277.320312 Z M 97.277344 97.277344 " clip-rule="nonzero"/></clipPath><clipPath id="c378be999f"><path d="M 134.710938 134.710938 L 238 134.710938 L 238 238 L 134.710938 238 Z M 134.710938 134.710938 " clip-rule="nonzero"/></clipPath></defs><g clip-path="url(#bc2786e94f)"><path fill="#073e80" d="M 277.710938 187.492188 C 277.710938 188.96875 277.675781 190.445312 277.601562 191.921875 C 277.53125 193.394531 277.421875 194.867188 277.277344 196.335938 C 277.132812 197.804688 276.953125 199.269531 276.734375 200.730469 C 276.519531 202.191406 276.265625 203.644531 275.976562 205.09375 C 275.691406 206.542969 275.367188 207.984375 275.007812 209.414062 C 274.648438 210.847656 274.253906 212.269531 273.828125 213.683594 C 273.398438 215.09375 272.933594 216.496094 272.4375 217.886719 C 271.941406 219.277344 271.410156 220.65625 270.84375 222.019531 C 270.277344 223.382812 269.679688 224.730469 269.050781 226.066406 C 268.417969 227.402344 267.753906 228.71875 267.058594 230.023438 C 266.363281 231.324219 265.636719 232.609375 264.875 233.875 C 264.117188 235.140625 263.328125 236.386719 262.507812 237.617188 C 261.6875 238.84375 260.835938 240.050781 259.957031 241.234375 C 259.078125 242.421875 258.167969 243.585938 257.234375 244.726562 C 256.296875 245.867188 255.332031 246.984375 254.339844 248.082031 C 253.347656 249.175781 252.332031 250.242188 251.289062 251.289062 C 250.242188 252.332031 249.175781 253.347656 248.082031 254.339844 C 246.984375 255.332031 245.867188 256.296875 244.726562 257.234375 C 243.585938 258.167969 242.421875 259.078125 241.234375 259.957031 C 240.050781 260.835938 238.84375 261.6875 237.617188 262.507812 C 236.386719 263.328125 235.140625 264.117188 233.875 264.875 C 232.609375 265.636719 231.324219 266.363281 230.023438 267.058594 C 228.71875 267.753906 227.402344 268.417969 226.066406 269.050781 C 224.730469 269.679688 223.382812 270.277344 222.019531 270.84375 C 220.65625 271.410156 219.277344 271.941406 217.886719 272.4375 C 216.496094 272.933594 215.09375 273.398438 213.683594 273.828125 C 212.269531 274.253906 210.847656 274.648438 209.414062 275.007812 C 207.984375 275.367188 206.542969 275.691406 205.09375 275.976562 C 203.644531 276.265625 202.191406 276.519531 200.730469 276.734375 C 199.269531 276.953125 197.804688 277.132812 196.335938 277.277344 C 194.867188 277.421875 193.394531 277.53125 191.921875 277.601562 C 190.445312 277.675781 188.96875 277.710938 187.492188 277.710938 C 186.015625 277.710938 184.542969 277.675781 183.066406 277.601562 C 181.59375 277.53125 180.121094 277.421875 178.652344 277.277344 C 177.183594 277.132812 175.71875 276.953125 174.257812 276.734375 C 172.796875 276.519531 171.339844 276.265625 169.894531 275.976562 C 168.445312 275.691406 167.003906 275.367188 165.574219 275.007812 C 164.140625 274.648438 162.71875 274.253906 161.304688 273.828125 C 159.890625 273.398438 158.492188 272.933594 157.101562 272.4375 C 155.710938 271.941406 154.332031 271.410156 152.96875 270.84375 C 151.605469 270.277344 150.253906 269.679688 148.921875 269.050781 C 147.585938 268.417969 146.269531 267.753906 144.964844 267.058594 C 143.664062 266.363281 142.378906 265.636719 141.113281 264.875 C 139.847656 264.117188 138.597656 263.328125 137.371094 262.507812 C 136.144531 261.6875 134.9375 260.835938 133.75 259.957031 C 132.566406 259.078125 131.402344 258.167969 130.261719 257.234375 C 129.121094 256.296875 128 255.332031 126.90625 254.339844 C 125.8125 253.347656 124.746094 252.332031 123.699219 251.289062 C 122.65625 250.242188 121.640625 249.175781 120.648438 248.082031 C 119.65625 246.984375 118.691406 245.867188 117.753906 244.726562 C 116.820312 243.585938 115.910156 242.421875 115.03125 241.234375 C 114.152344 240.050781 113.300781 238.84375 112.480469 237.617188 C 111.660156 236.386719 110.871094 235.140625 110.113281 233.875 C 109.351562 232.609375 108.625 231.324219 107.929688 230.023438 C 107.234375 228.71875 106.570312 227.402344 105.9375 226.066406 C 105.308594 224.730469 104.710938 223.382812 104.144531 222.019531 C 103.578125 220.65625 103.046875 219.277344 102.550781 217.886719 C 102.054688 216.496094 101.589844 215.09375 101.160156 213.683594 C 100.734375 212.269531 100.339844 210.847656 99.980469 209.414062 C 99.621094 207.984375 99.296875 206.542969 99.011719 205.09375 C 98.722656 203.644531 98.46875 202.191406 98.253906 200.730469 C 98.035156 199.269531 97.855469 197.804688 97.710938 196.335938 C 97.566406 194.867188 97.457031 193.394531 97.386719 191.921875 C 97.3125 190.445312 97.277344 188.96875 97.277344 187.492188 C 97.277344 186.015625 97.3125 184.542969 97.386719 183.066406 C 97.457031 181.59375 97.566406 180.121094 97.710938 178.652344 C 97.855469 177.183594 98.035156 175.71875 98.253906 174.257812 C 98.46875 172.796875 98.722656 171.339844 99.011719 169.894531 C 99.296875 168.445312 99.621094 167.003906 99.980469 165.574219 C 100.339844 164.140625 100.734375 162.71875 101.160156 161.304688 C 101.589844 159.890625 102.054688 158.492188 102.550781 157.101562 C 103.046875 155.710938 103.578125 154.332031 104.144531 152.96875 C 104.710938 151.605469 105.308594 150.253906 105.9375 148.921875 C 106.570312 147.585938 107.234375 146.269531 107.929688 144.964844 C 108.625 143.664062 109.351562 142.378906 110.113281 141.113281 C 110.871094 139.847656 111.660156 138.601562 112.480469 137.371094 C 113.300781 136.144531 114.152344 134.9375 115.03125 133.75 C 115.910156 132.566406 116.820312 131.402344 117.753906 130.261719 C 118.691406 129.121094 119.65625 128 120.648438 126.90625 C 121.640625 125.8125 122.65625 124.746094 123.699219 123.699219 C 124.746094 122.65625 125.8125 121.640625 126.90625 120.648438 C 128 119.65625 129.121094 118.691406 130.261719 117.753906 C 131.402344 116.820312 132.566406 115.910156 133.75 115.03125 C 134.9375 114.152344 136.144531 113.300781 137.371094 112.480469 C 138.597656 111.660156 139.847656 110.871094 141.113281 110.113281 C 142.378906 109.351562 143.664062 108.625 144.964844 107.929688 C 146.269531 107.234375 147.585938 106.570312 148.921875 105.9375 C 150.253906 105.308594 151.605469 104.710938 152.96875 104.144531 C 154.332031 103.578125 155.710938 103.046875 157.101562 102.550781 C 158.492188 102.054688 159.890625 101.589844 161.304688 101.160156 C 162.71875 100.734375 164.140625 100.339844 165.574219 99.980469 C 167.003906 99.621094 168.445312 99.296875 169.894531 99.011719 C 171.339844 98.722656 172.796875 98.46875 174.257812 98.253906 C 175.71875 98.035156 177.183594 97.855469 178.652344 97.710938 C 180.121094 97.566406 181.59375 97.457031 183.066406 97.386719 C 184.542969 97.3125 186.015625 97.277344 187.492188 97.277344 C 188.96875 97.277344 190.445312 97.3125 191.921875 97.386719 C 193.394531 97.457031 194.867188 97.566406 196.335938 97.710938 C 197.804688 97.855469 199.269531 98.035156 200.730469 98.253906 C 202.191406 98.46875 203.644531 98.722656 205.09375 99.011719 C 206.542969 99.296875 207.984375 99.621094 209.414062 99.980469 C 210.847656 100.339844 212.269531 100.734375 213.683594 101.160156 C 215.09375 101.589844 216.496094 102.054688 217.886719 102.550781 C 219.277344 103.046875 220.65625 103.578125 222.019531 104.144531 C 223.382812 104.710938 224.730469 105.308594 226.066406 105.9375 C 227.402344 106.570312 228.71875 107.234375 230.023438 107.929688 C 231.324219 108.625 232.609375 109.351562 233.875 110.113281 C 235.140625 110.871094 236.386719 111.660156 237.617188 112.480469 C 238.84375 113.300781 240.050781 114.152344 241.234375 115.03125 C 242.421875 115.910156 243.585938 116.820312 244.726562 117.753906 C 245.867188 118.691406 246.984375 119.65625 248.082031 120.648438 C 249.175781 121.640625 250.242188 122.65625 251.289062 123.699219 C 252.332031 124.746094 253.347656 125.8125 254.339844 126.90625 C 255.332031 128 256.296875 129.121094 257.234375 130.261719 C 258.167969 131.402344 259.078125 132.566406 259.957031 133.75 C 260.835938 134.9375 261.6875 136.144531 262.507812 137.371094 C 263.328125 138.601562 264.117188 139.847656 264.875 141.113281 C 265.636719 142.378906 266.363281 143.664062 267.058594 144.964844 C 267.753906 146.269531 268.417969 147.585938 269.050781 148.921875 C 269.679688 150.253906 270.277344 151.605469 270.84375 152.96875 C 271.410156 154.332031 271.941406 155.710938 272.4375 157.101562 C 272.933594 158.492188 273.398438 159.890625 273.828125 161.304688 C 274.253906 162.71875 274.648438 164.140625 275.007812 165.574219 C 275.367188 167.003906 275.691406 168.445312 275.976562 169.894531 C 276.265625 171.339844 276.519531 172.796875 276.734375 174.257812 C 276.953125 175.71875 277.132812 177.183594 277.277344 178.652344 C 277.421875 180.121094 277.53125 181.59375 277.601562 183.066406 C 277.675781 184.542969 277.710938 186.015625 277.710938 187.492188 Z M 277.710938 187.492188 " fill-opacity="1" fill-rule="nonzero"/></g><g clip-path="url(#c378be999f)"><path fill="#00c4cc" d="M 182.683594 134.835938 C 182.292969 134.875 181.074219 135.019531 179.996094 135.148438 C 175.65625 135.640625 170.734375 136.945312 166.414062 138.765625 C 150.777344 145.296875 139.011719 159.628906 135.765625 176.070312 C 135 179.976562 134.816406 181.898438 134.816406 186.40625 C 134.816406 192.21875 135.394531 196.230469 136.925781 201.296875 C 141.929688 217.878906 154.957031 230.886719 171.582031 235.910156 C 176.585938 237.421875 180.617188 238 186.40625 238 C 192.21875 238 196.230469 237.421875 201.296875 235.890625 C 217.878906 230.886719 230.886719 217.859375 235.910156 201.234375 C 237.421875 196.230469 238 192.199219 238 186.40625 C 238 183.945312 237.875 181.136719 237.730469 180.101562 C 236.054688 168.148438 231.132812 158.097656 222.925781 149.886719 C 214.734375 141.742188 204.726562 136.800781 193.023438 135.125 C 191.410156 134.898438 183.945312 134.6875 182.683594 134.835938 M 165.832031 167.402344 C 166.929688 167.734375 167.445312 168.042969 168.1875 168.789062 C 169.636719 170.257812 169.96875 171.0625 169.96875 173.273438 C 169.96875 174.933594 169.90625 175.242188 169.410156 176.109375 C 168.457031 177.722656 166.246094 179.210938 164.714844 179.25 C 163.640625 179.273438 163.683594 178.796875 164.859375 177.558594 C 166.433594 175.921875 166.660156 175.304688 166.660156 172.863281 C 166.640625 170.503906 166.351562 169.699219 165.253906 169.039062 C 164.34375 168.480469 163.351562 168.519531 161.902344 169.203125 C 158.140625 171.003906 154.066406 177 152.476562 183.140625 C 150.363281 191.332031 154.109375 197.882812 160.269531 196.765625 C 162.066406 196.433594 165.460938 194.699219 166.929688 193.332031 C 168.148438 192.21875 168.148438 192.199219 168.269531 190.8125 C 168.542969 187.914062 170.585938 185.023438 173.320312 183.679688 C 174.578125 183.054688 174.890625 182.996094 176.585938 182.996094 C 178.199219 182.996094 178.570312 183.078125 179.355469 183.511719 C 181.859375 184.941406 181.339844 188.269531 178.632812 188.269531 C 177.0625 188.269531 176.253906 187.460938 177.394531 187.03125 C 178.511719 186.617188 178.09375 185.0625 176.792969 184.714844 C 175.261719 184.320312 173.523438 185.355469 172.429688 187.339844 C 171.105469 189.738281 171.042969 192.59375 172.304688 193.890625 C 173.523438 195.195312 175.054688 194.164062 176.234375 191.203125 C 176.855469 189.695312 177.742188 188.886719 178.777344 188.886719 C 179.6875 188.886719 179.855469 189.445312 179.460938 191.144531 C 178.878906 193.769531 179.273438 194.449219 180.90625 193.644531 C 181.445312 193.394531 182.335938 192.820312 182.871094 192.40625 L 183.882812 191.597656 L 184.570312 188.019531 C 185.3125 184.007812 185.601562 183.46875 187.128906 183.183594 C 188.601562 182.910156 188.933594 183.636719 188.390625 185.929688 L 188.101562 187.214844 L 189.179688 186.117188 C 191.722656 183.511719 194.84375 182.230469 195.921875 183.304688 C 196.5 183.882812 196.433594 184.609375 195.609375 187.171875 C 195.21875 188.390625 194.675781 190.316406 194.433594 191.410156 C 194.058594 193.066406 194.035156 193.460938 194.246094 193.726562 C 194.910156 194.511719 196.933594 193.707031 198.730469 191.949219 L 199.785156 190.917969 L 199.914062 188.621094 C 200.035156 185.972656 200.28125 185.023438 200.984375 184.171875 C 201.648438 183.386719 202.847656 182.8125 203.488281 182.976562 C 204.128906 183.140625 204.128906 183.761719 203.550781 185.582031 C 202.742188 188.082031 202.828125 193.851562 203.65625 193.851562 C 203.984375 193.851562 205.679688 192.074219 206.757812 190.585938 L 207.5625 189.488281 L 206.921875 188.828125 C 205.804688 187.648438 205.535156 186.882812 205.535156 184.960938 C 205.535156 183.554688 205.640625 183.039062 205.988281 182.351562 C 206.570312 181.28125 207.480469 180.496094 208.554688 180.183594 C 209.691406 179.832031 211.097656 180.410156 211.675781 181.445312 C 212.253906 182.5 212.109375 184.855469 211.367188 186.46875 L 210.828125 187.648438 L 211.550781 187.648438 C 212.546875 187.648438 212.9375 187.402344 214.71875 185.726562 C 215.648438 184.835938 216.722656 184.070312 217.527344 183.699219 C 220.691406 182.210938 224.417969 182.976562 225.035156 185.25 C 225.550781 187.070312 224.417969 188.351562 222.429688 188.207031 C 221.003906 188.101562 220.734375 187.730469 221.5625 187.03125 C 223.050781 185.785156 221.5625 184.195312 219.429688 184.773438 C 218.273438 185.085938 216.96875 186.386719 216.289062 187.898438 C 214.921875 190.917969 215.648438 194.472656 217.609375 194.472656 C 218.394531 194.472656 219.785156 192.921875 220.320312 191.410156 C 220.960938 189.671875 222.304688 188.578125 223.316406 188.972656 C 223.875 189.179688 223.917969 189.738281 223.566406 191.492188 C 223.171875 193.417969 223.113281 195.21875 223.421875 196.042969 C 223.546875 196.351562 223.917969 196.933594 224.269531 197.324219 C 224.929688 198.070312 224.953125 198.339844 224.394531 198.691406 C 224.125 198.875 223.773438 198.796875 222.90625 198.320312 C 221.707031 197.699219 220.671875 196.582031 220.296875 195.527344 L 220.070312 194.90625 L 219.246094 195.527344 C 218.769531 195.859375 218.023438 196.230469 217.589844 196.351562 C 215.875 196.808594 213.765625 195.628906 212.773438 193.644531 C 212.378906 192.878906 212.253906 190.625 212.546875 189.757812 C 212.710938 189.28125 212.710938 189.28125 212.046875 189.613281 C 211.699219 189.800781 210.953125 190.003906 210.375 190.066406 C 209.421875 190.171875 209.277344 190.277344 208.328125 191.476562 C 206.984375 193.148438 204.605469 195.402344 203.632812 195.878906 C 201.566406 196.910156 200.882812 196.621094 200.34375 194.492188 L 199.972656 193.066406 L 199.082031 193.851562 C 197.945312 194.84375 195.671875 196.042969 194.367188 196.335938 C 193.128906 196.601562 191.804688 196.207031 191.265625 195.382812 C 190.460938 194.140625 190.730469 191.515625 192.011719 187.980469 C 192.960938 185.355469 192.28125 185.3125 189.882812 187.816406 C 188.101562 189.695312 187.339844 191.039062 186.84375 193.128906 C 186.324219 195.300781 185.703125 196.085938 184.300781 196.414062 C 183.453125 196.601562 183.054688 196.085938 183.222656 194.949219 L 183.347656 194.035156 L 182.5625 194.578125 C 181.445312 195.339844 180.035156 196.042969 179.066406 196.3125 C 178.09375 196.582031 176.8125 196.292969 176.503906 195.753906 C 175.945312 194.804688 175.945312 194.804688 175.078125 195.484375 C 173.195312 197.015625 170.503906 196.582031 169.140625 194.554688 L 168.707031 193.914062 L 167.34375 195.175781 C 163.410156 198.773438 158.492188 200.386719 154.851562 199.269531 C 150.21875 197.863281 147.65625 193.890625 147.699219 188.164062 C 147.71875 182.417969 150.261719 176.359375 154.542969 171.871094 C 156.960938 169.347656 159.238281 167.859375 161.554688 167.300781 C 163.226562 166.886719 164.242188 166.90625 165.832031 167.402344 Z M 165.832031 167.402344 " fill-opacity="1" fill-rule="nonzero"/></g><path fill="#00c4cc" d="M 207.746094 182.105469 C 207.292969 182.5625 207.460938 184.382812 208.039062 185.539062 C 208.328125 186.140625 208.636719 186.617188 208.742188 186.617188 C 208.824219 186.617188 209.007812 186.140625 209.152344 185.558594 C 209.671875 183.410156 208.742188 181.113281 207.746094 182.105469 " fill-opacity="1" fill-rule="nonzero"/></svg>